<svg version="1.1" id="Layer_1" xmlns="http://www.w3.org/2000/svg" xmlns:xlink="http://www.w3.org/1999/xlink" x="0px" y="0px"
	 width="100%" viewBox="0 0 585 587" enable-background="new 0 0 585 587" xml:space="preserve">
<path fill="#000000" opacity="1.000000" stroke="none" 
	d="
M328.000000,588.000000 
	C218.666672,588.000000 109.833336,588.000000 1.000000,588.000000 
	C1.000000,392.333344 1.000000,196.666672 1.000000,1.000000 
	C196.000000,1.000000 391.000000,1.000000 586.000000,1.000000 
	C586.000000,196.666672 586.000000,392.333344 586.000000,588.000000 
	C500.166656,588.000000 414.333344,588.000000 328.000000,588.000000 
M267.016937,64.390480 
	C261.534485,68.904457 255.811203,73.159325 250.619217,77.985748 
	C239.415543,88.400536 229.983551,100.150879 222.463806,113.651428 
	C212.120850,132.220612 205.371414,151.966309 205.223969,172.991577 
	C204.668976,252.139374 204.999039,331.293396 205.015030,410.445099 
	C205.015381,412.184479 205.223709,413.923828 205.336899,415.692505 
	C227.637161,412.789886 253.612991,396.318604 267.195709,377.852783 
	C281.689362,358.148468 288.194122,336.277100 288.063873,311.972839 
	C287.835297,269.315460 287.899841,226.655655 288.038147,183.997498 
	C288.119263,158.967102 299.386841,140.526199 321.981628,129.590591 
	C346.682404,117.635696 371.534180,125.041985 388.373657,142.352631 
	C398.912811,153.186661 404.082672,166.761932 404.172638,182.401489 
	C404.256348,196.942291 410.543457,209.000641 422.860046,217.247543 
	C444.396240,231.667664 473.592102,222.361588 483.160736,200.704376 
	C486.782104,192.507980 487.818787,184.306183 487.260376,175.283173 
	C486.519073,163.305206 484.658844,151.663513 481.172241,140.287781 
	C471.144226,107.569305 451.216766,82.176979 422.861755,63.397179 
	C404.507568,51.241024 384.179871,44.388554 362.248993,41.885792 
	C341.165283,39.479717 320.492828,41.091682 300.657959,48.415405 
	C289.284119,52.615028 278.621185,58.739895 267.016937,64.390480 
M178.564484,388.066498 
	C170.270264,372.782257 157.643311,364.881256 140.038757,364.959656 
	C121.564232,365.041931 104.545403,378.896881 101.289062,396.267151 
	C99.596870,405.293823 100.587387,414.920898 101.085190,424.238342 
	C101.876755,439.054016 106.624779,452.916443 112.740707,466.308563 
	C121.944077,486.461334 135.501846,503.202148 152.639160,517.188293 
	C175.078079,535.501282 200.996567,545.421997 229.543854,547.807495 
	C250.474594,549.556580 271.025269,546.581421 290.964081,539.177002 
	C310.861084,531.788086 327.959747,520.211792 342.750092,505.438232 
	C355.064240,493.138000 364.433838,478.466705 371.218750,462.343719 
	C377.861115,446.559418 381.978363,430.152649 381.985718,412.916351 
	C382.018982,334.932922 382.000519,256.949463 382.000702,178.966019 
	C382.000702,177.039246 382.000732,175.112473 382.000732,172.781158 
	C359.268646,177.640228 340.699036,188.077728 325.470642,204.908661 
	C307.593597,224.667053 299.231506,247.922882 299.071716,274.167633 
	C298.801849,318.489899 298.978516,362.815033 299.007721,407.138947 
	C299.019684,425.309662 291.714600,440.035828 277.898987,451.523193 
	C268.154694,459.625336 256.819214,464.323608 244.099228,464.949554 
	C227.773270,465.752960 213.681992,460.319397 201.635986,449.203400 
	C189.770767,438.254303 183.972519,424.772461 182.853195,408.765289 
	C182.382492,402.033966 180.296204,395.415649 178.564484,388.066498 
z"/>
<path fill="#28347D" opacity="1.000000" stroke="none" 
	d="
M267.327576,64.194260 
	C278.621185,58.739895 289.284119,52.615028 300.657959,48.415405 
	C320.492828,41.091682 341.165283,39.479717 362.248993,41.885792 
	C384.179871,44.388554 404.507568,51.241024 422.861755,63.397179 
	C451.216766,82.176979 471.144226,107.569305 481.172241,140.287781 
	C484.658844,151.663513 486.519073,163.305206 487.260376,175.283173 
	C487.818787,184.306183 486.782104,192.507980 483.160736,200.704376 
	C473.592102,222.361588 444.396240,231.667664 422.860046,217.247543 
	C410.543457,209.000641 404.256348,196.942291 404.172638,182.401489 
	C404.082672,166.761932 398.912811,153.186661 388.373657,142.352631 
	C371.534180,125.041985 346.682404,117.635696 321.981628,129.590591 
	C299.386841,140.526199 288.119263,158.967102 288.038147,183.997498 
	C287.899841,226.655655 287.835297,269.315460 288.063873,311.972839 
	C288.194122,336.277100 281.689362,358.148468 267.195709,377.852783 
	C253.612991,396.318604 227.637161,412.789886 205.336899,415.692505 
	C205.223709,413.923828 205.015381,412.184479 205.015030,410.445099 
	C204.999039,331.293396 204.668976,252.139374 205.223969,172.991577 
	C205.371414,151.966309 212.120850,132.220612 222.463806,113.651428 
	C229.983551,100.150879 239.415543,88.400536 250.619217,77.985748 
	C255.811203,73.159325 261.534485,68.904457 267.327576,64.194260 
z"/>
<path fill="#EC6D1D" opacity="1.000000" stroke="none" 
	d="
M178.754425,388.406219 
	C180.296204,395.415649 182.382492,402.033966 182.853195,408.765289 
	C183.972519,424.772461 189.770767,438.254303 201.635986,449.203400 
	C213.681992,460.319397 227.773270,465.752960 244.099228,464.949554 
	C256.819214,464.323608 268.154694,459.625336 277.898987,451.523193 
	C291.714600,440.035828 299.019684,425.309662 299.007721,407.138947 
	C298.978516,362.815033 298.801849,318.489899 299.071716,274.167633 
	C299.231506,247.922882 307.593597,224.667053 325.470642,204.908661 
	C340.699036,188.077728 359.268646,177.640228 382.000732,172.781158 
	C382.000732,175.112473 382.000702,177.039246 382.000702,178.966019 
	C382.000519,256.949463 382.018982,334.932922 381.985718,412.916351 
	C381.978363,430.152649 377.861115,446.559418 371.218750,462.343719 
	C364.433838,478.466705 355.064240,493.138000 342.750092,505.438232 
	C327.959747,520.211792 310.861084,531.788086 290.964081,539.177002 
	C271.025269,546.581421 250.474594,549.556580 229.543854,547.807495 
	C200.996567,545.421997 175.078079,535.501282 152.639160,517.188293 
	C135.501846,503.202148 121.944077,486.461334 112.740707,466.308563 
	C106.624779,452.916443 101.876755,439.054016 101.085190,424.238342 
	C100.587387,414.920898 99.596870,405.293823 101.289062,396.267151 
	C104.545403,378.896881 121.564232,365.041931 140.038757,364.959656 
	C157.643311,364.881256 170.270264,372.782257 178.754425,388.406219 
z"/>
</svg>